# xmcd
# 
# Track frame offsets:
#     150
#     18962
#     37510
#     59785
#     78959
#     102296
#     120519
#     138844
#     151617
#     173017
#     191298
#     216571
# 
# Disc length: 3133
# 
# Revision: 2
# Processed by: cddbd v1.5.2PL0 Copyright (c) Steve Scherf et al.
# Submitted via: fre:ac v1.0.17
# 
DISCID=8d0c3b0c
DTITLE=Riccardo Tesi and Bandaitaliana - Lune
DYEAR=2004
DGENRE=
TTITLE0=Assedio
TTITLE1=Brughiere
TTITLE2=Lune
TTITLE3=Scapoli
TTITLE4=Ninna Nanna
TTITLE5=Trioole'
TTITLE6=Il Valzer Della Povera Gente
TTITLE7=Aulos
TTITLE8=Macedonia
TTITLE9=Loulou
TTITLE10=Maggio
TTITLE11=Tevakh (Remix di Ominostanco)
EXTD=
EXTT0=
EXTT1=
EXTT2=
EXTT3=
EXTT4=
EXTT5=
EXTT6=
EXTT7=
EXTT8=
EXTT9=
EXTT10=
EXTT11=
PLAYORDER=
